<svg width="64" height="65" viewBox="0 0 64 65" fill="none" xmlns="http://www.w3.org/2000/svg">
<path d="M58.6667 32.3998C58.6667 47.1274 46.7276 59.0665 32 59.0665M58.6667 32.3998C58.6667 17.6722 46.7276 5.73315 32 5.73315M58.6667 32.3998H5.33334M32 59.0665C17.2724 59.0665 5.33334 47.1274 5.33334 32.3998M32 59.0665C38.6701 51.7642 42.4607 42.2877 42.6667 32.3998C42.4607 22.5119 38.6701 13.0354 32 5.73315M32 59.0665C25.3299 51.7642 21.5393 42.2877 21.3333 32.3998C21.5393 22.5119 25.3299 13.0354 32 5.73315M5.33334 32.3998C5.33334 17.6722 17.2724 5.73315 32 5.73315" stroke="#1E1E1E" stroke-width="6.4" stroke-linecap="round" stroke-linejoin="round"/>
</svg>
