<svg width="65" height="64" viewBox="0 0 65 64" fill="none" xmlns="http://www.w3.org/2000/svg">
<g clip-path="url(#clip0_24_5)">
<path d="M45.8376 55.7124V50.4179C45.8376 47.6095 44.722 44.9162 42.7362 42.9304C40.7504 40.9445 38.057 39.8289 35.2487 39.8289H14.0707C11.2623 39.8289 8.569 40.9445 6.58319 42.9304C4.59737 44.9162 3.48175 47.6095 3.48175 50.4179V55.7124M61.7211 55.7124V50.4179C61.7193 48.0717 60.9384 45.7926 59.501 43.9383C58.0636 42.084 56.051 40.7596 53.7793 40.1731M43.1904 8.40615C45.4681 8.98934 47.487 10.314 48.9286 12.1714C50.3703 14.0287 51.1529 16.313 51.1529 18.6642C51.1529 21.0154 50.3703 23.2998 48.9286 25.1571C47.487 27.0144 45.4681 28.3391 43.1904 28.9223M35.2487 18.651C35.2487 24.4991 30.5078 29.24 24.6597 29.24C18.8116 29.24 14.0707 24.4991 14.0707 18.651C14.0707 12.8029 18.8116 8.06201 24.6597 8.06201C30.5078 8.06201 35.2487 12.8029 35.2487 18.651Z" stroke="#1E1E1E" stroke-width="6.35338" stroke-linecap="round" stroke-linejoin="round"/>
</g>
<defs>
<clipPath id="clip0_24_5">
<rect width="63.5338" height="63.5338" fill="white" transform="translate(0.834534 0.120361)"/>
</clipPath>
</defs>
</svg>
