<svg width="24" height="24" viewBox="0 0 24 24" fill="none" xmlns="http://www.w3.org/2000/svg">
<path fill-rule="evenodd" clip-rule="evenodd" d="M12 8.00012C13.1 8.00012 14 7.10012 14 6.00012C14 4.90012 13.1 4.00012 12 4.00012C10.9 4.00012 10 4.90012 10 6.00012C10 7.10012 10.9 8.00012 12 8.00012ZM12 10.0001C10.9 10.0001 10 10.9001 10 12.0001C10 13.1001 10.9 14.0001 12 14.0001C13.1 14.0001 14 13.1001 14 12.0001C14 10.9001 13.1 10.0001 12 10.0001ZM10 18.0001C10 16.9001 10.9 16.0001 12 16.0001C13.1 16.0001 14 16.9001 14 18.0001C14 19.1001 13.1 20.0001 12 20.0001C10.9 20.0001 10 19.1001 10 18.0001Z" fill="#49454F"/>
</svg>
